<svg xmlns="http://www.w3.org/2000/svg" width="1600" height="1000" viewBox="0 0 1600 1000" role="img" aria-labelledby="title desc">
  <title id="title">Lead dashboard before campaign improvements</title>
  <desc id="desc">A dark lead dashboard showing eight qualified enquiries per month and a fragmented enquiry pipeline.</desc>
  <defs>
    <linearGradient id="bg" x1="0" y1="0" x2="1" y2="1"><stop stop-color="#111b29"/><stop offset="1" stop-color="#070d16"/></linearGradient>
    <pattern id="grid" width="60" height="60" patternUnits="userSpaceOnUse"><path d="M60 0H0V60" fill="none" stroke="#fff" stroke-opacity=".025"/></pattern>
  </defs>
  <rect width="1600" height="1000" fill="url(#bg)"/>
  <rect width="1600" height="1000" fill="url(#grid)"/>
  <rect width="214" height="1000" fill="#09111d"/>
  <rect x="33" y="37" width="46" height="46" rx="11" fill="#283446"/>
  <text x="96" y="69" fill="#dce3eb" font-family="Arial, sans-serif" font-size="22" font-weight="700">DG / LEADS</text>
  <text x="35" y="160" fill="#758397" font-family="Arial, sans-serif" font-size="13" letter-spacing="3">OVERVIEW</text>
  <rect x="25" y="185" width="164" height="49" rx="8" fill="#1a2534"/>
  <circle cx="49" cy="209" r="5" fill="#7d8898"/>
  <text x="67" y="215" fill="#c2cbd6" font-family="Arial, sans-serif" font-size="16">Pipeline</text>
  <circle cx="49" cy="274" r="5" fill="#4f5d70"/>
  <text x="67" y="280" fill="#6f7e92" font-family="Arial, sans-serif" font-size="16">Campaigns</text>
  <circle cx="49" cy="337" r="5" fill="#4f5d70"/>
  <text x="67" y="343" fill="#6f7e92" font-family="Arial, sans-serif" font-size="16">Sources</text>
  <text x="262" y="69" fill="#8d9aad" font-family="Arial, sans-serif" font-size="14" letter-spacing="3">ACTIVE COACHLINES / PIPELINE</text>
  <text x="262" y="130" fill="#f4f6f8" font-family="Arial, sans-serif" font-size="35" font-weight="700">Lead operations</text>
  <text x="262" y="164" fill="#758397" font-family="Arial, sans-serif" font-size="16">Snapshot before the connected growth system</text>
  <rect x="1320" y="105" width="188" height="52" rx="26" fill="#201d22" stroke="#6a4f45"/>
  <circle cx="1350" cy="131" r="6" fill="#c8785f"/>
  <text x="1370" y="137" fill="#dba28f" font-family="Arial, sans-serif" font-size="14" letter-spacing="2">BEFORE</text>

  <g transform="translate(262 215)">
    <rect width="365" height="180" rx="14" fill="#111c2a" stroke="#293646"/>
    <text x="28" y="45" fill="#79879a" font-family="Arial, sans-serif" font-size="14" letter-spacing="2">QUALIFIED ENQUIRIES / MO</text>
    <text x="28" y="122" fill="#f2f4f7" font-family="Arial, sans-serif" font-size="72" font-weight="700">8</text>
    <text x="104" y="120" fill="#9b6f62" font-family="Arial, sans-serif" font-size="16">inconsistent</text>
    <path d="M270 128l20-16 22 11 25-30" fill="none" stroke="#9b6f62" stroke-width="5" stroke-linecap="round"/>
  </g>
  <g transform="translate(653 215)">
    <rect width="365" height="180" rx="14" fill="#111c2a" stroke="#293646"/>
    <text x="28" y="45" fill="#79879a" font-family="Arial, sans-serif" font-size="14" letter-spacing="2">ENQUIRY SOURCES</text>
    <text x="28" y="110" fill="#d7dde5" font-family="Arial, sans-serif" font-size="35" font-weight="700">Fragmented</text>
    <text x="28" y="143" fill="#78869a" font-family="Arial, sans-serif" font-size="15">Calls · inboxes · referrals</text>
  </g>
  <g transform="translate(1044 215)">
    <rect width="464" height="180" rx="14" fill="#111c2a" stroke="#293646"/>
    <text x="28" y="45" fill="#79879a" font-family="Arial, sans-serif" font-size="14" letter-spacing="2">VISIBILITY</text>
    <text x="28" y="110" fill="#d7dde5" font-family="Arial, sans-serif" font-size="35" font-weight="700">Hard to trace</text>
    <text x="28" y="143" fill="#78869a" font-family="Arial, sans-serif" font-size="15">No consistent source-to-enquiry view</text>
  </g>

  <g transform="translate(262 430)">
    <rect width="770" height="480" rx="14" fill="#0e1825" stroke="#293646"/>
    <text x="30" y="49" fill="#dce2e9" font-family="Arial, sans-serif" font-size="18" font-weight="700">Qualified enquiry trend</text>
    <text x="30" y="77" fill="#6f7d90" font-family="Arial, sans-serif" font-size="14">Monthly view</text>
    <g stroke="#8d9aad" stroke-opacity=".13"><path d="M64 144H730M64 218H730M64 292H730M64 366H730"/><path d="M64 120V392"/></g>
    <path d="M68 338 C130 325 158 346 217 331 S305 339 356 320 S446 344 506 325 S600 337 664 306 S705 320 730 309" fill="none" stroke="#9b6f62" stroke-width="6" stroke-linecap="round"/>
    <g fill="#9b6f62"><circle cx="68" cy="338" r="6"/><circle cx="217" cy="331" r="6"/><circle cx="356" cy="320" r="6"/><circle cx="506" cy="325" r="6"/><circle cx="664" cy="306" r="6"/><circle cx="730" cy="309" r="6"/></g>
    <text x="62" y="428" fill="#667487" font-family="Arial, sans-serif" font-size="13">JAN</text><text x="196" y="428" fill="#667487" font-family="Arial, sans-serif" font-size="13">FEB</text><text x="332" y="428" fill="#667487" font-family="Arial, sans-serif" font-size="13">MAR</text><text x="468" y="428" fill="#667487" font-family="Arial, sans-serif" font-size="13">APR</text><text x="604" y="428" fill="#667487" font-family="Arial, sans-serif" font-size="13">MAY</text>
  </g>
  <g transform="translate(1058 430)">
    <rect width="450" height="480" rx="14" fill="#0e1825" stroke="#293646"/>
    <text x="28" y="49" fill="#dce2e9" font-family="Arial, sans-serif" font-size="18" font-weight="700">Enquiry handoff</text>
    <text x="28" y="77" fill="#6f7d90" font-family="Arial, sans-serif" font-size="14">Recent signals</text>
    <g font-family="Arial, sans-serif">
      <rect x="26" y="112" width="398" height="78" rx="10" fill="#141f2d"/><circle cx="56" cy="151" r="12" fill="#3a4656"/><text x="82" y="145" fill="#bbc4cf" font-size="15">Website enquiry</text><text x="82" y="169" fill="#758397" font-size="13">Needs manual follow-up</text><text x="340" y="158" fill="#b47b69" font-size="12">OPEN</text>
      <rect x="26" y="207" width="398" height="78" rx="10" fill="#141f2d"/><circle cx="56" cy="246" r="12" fill="#3a4656"/><text x="82" y="240" fill="#bbc4cf" font-size="15">Phone enquiry</text><text x="82" y="264" fill="#758397" font-size="13">Source not recorded</text><text x="322" y="253" fill="#8c7780" font-size="12">UNTRACKED</text>
      <rect x="26" y="302" width="398" height="78" rx="10" fill="#141f2d"/><circle cx="56" cy="341" r="12" fill="#3a4656"/><text x="82" y="335" fill="#bbc4cf" font-size="15">Referral</text><text x="82" y="359" fill="#758397" font-size="13">No campaign context</text><text x="322" y="348" fill="#8c7780" font-size="12">UNTRACKED</text>
    </g>
  </g>
</svg>
